<svg width="25" height="29" viewBox="0 0 25 29" fill="none" xmlns="http://www.w3.org/2000/svg">
<path fill-rule="evenodd" clip-rule="evenodd" d="M5.41697 2.71673C5.96173 0.853136 7.91513 -0.21622 9.77991 0.328267L21.5314 3.75956C23.3961 4.30404 24.4662 6.25619 23.9214 8.11977L18.6594 26.1185C18.1145 27.9822 16.1611 29.0515 14.2964 28.5071L2.54491 25.0757C0.680134 24.5312 -0.389877 22.5791 0.154961 20.7155L5.41697 2.71673ZM9.02107 2.92392C8.59074 2.79827 8.13992 3.04504 8.01421 3.4751L2.7522 21.4739C2.62648 21.904 2.87343 22.3544 3.30375 22.4801L15.0553 25.9114C15.4856 26.037 15.9364 25.7902 16.0621 25.3602L21.3241 7.36141C21.4498 6.93135 21.2029 6.48086 20.7725 6.35521L9.02107 2.92392Z" fill="#969FA4"/>
</svg>
