<svg width="30" height="27" viewBox="0 0 30 27" fill="none" xmlns="http://www.w3.org/2000/svg">
<path fill-rule="evenodd" clip-rule="evenodd" d="M14.4581 0.687181C14.8249 0.444686 15.3029 0.444686 15.6697 0.687181L28.7761 9.3503C29.0799 9.55115 29.2625 9.88926 29.2625 10.2513V24.3289C29.2625 24.9033 29.0323 25.4541 28.6226 25.8603C28.213 26.2665 27.6574 26.4947 27.078 26.4947H3.04975C2.47042 26.4947 1.9148 26.2665 1.50515 25.8603C1.0955 25.4541 0.865356 24.9033 0.865356 24.3289V10.2513C0.865356 9.88926 1.04787 9.55115 1.35171 9.3503L14.4581 0.687181ZM3.04975 10.8309V24.3289H27.078V10.8309L15.0639 2.88967L3.04975 10.8309Z" fill="#969FA4"/>
</svg>
